<?xml version="1.0" encoding="UTF-8" standalone="no"?>
<!DOCTYPE svg PUBLIC "-//W3C//DTD SVG 1.1//EN"
 "http://www.w3.org/Graphics/SVG/1.1/DTD/svg11.dtd">
<!-- Generated by graphviz version 2.42.4 (0)
 -->
<!-- Title: cluster0word_up.py Pages: 1 -->
<svg width="1076pt" height="774pt"
 viewBox="0.00 0.00 1075.50 774.00" xmlns="http://www.w3.org/2000/svg" xmlns:xlink="http://www.w3.org/1999/xlink">
<g id="graph0" class="graph" transform="scale(1 1) rotate(0) translate(4 770)">
<title>cluster0word_up.py</title>
<polygon fill="white" stroke="transparent" points="-4,4 -4,-770 1071.5,-770 1071.5,4 -4,4"/>
<text text-anchor="middle" x="533.75" y="-7.8" font-family="Times,serif" font-size="14.00">word_up.py</text>
<g id="clust1" class="cluster">
<title>cluster0build_matrix</title>
<polygon fill="none" stroke="black" points="323.5,-23 323.5,-160 829.5,-160 829.5,-23 323.5,-23"/>
<text text-anchor="middle" x="576.5" y="-144.8" font-family="Times,serif" font-size="14.00">build_matrix</text>
</g>
<g id="clust2" class="cluster">
<title>cluster0matrix_search</title>
<polygon fill="none" stroke="black" points="539.5,-599 539.5,-766 1067.5,-766 1067.5,-599 539.5,-599"/>
<text text-anchor="middle" x="803.5" y="-750.8" font-family="Times,serif" font-size="14.00">matrix_search</text>
</g>
<g id="clust3" class="cluster">
<title>cluster_KEY</title>
<polygon fill="none" stroke="black" points="215.5,-599 215.5,-762 470.5,-762 470.5,-599 215.5,-599"/>
<text text-anchor="middle" x="343" y="-746.8" font-family="Times,serif" font-size="14.00">KEY</text>
</g>
<!-- 1 -->
<g id="node1" class="node">
<title>1</title>
<polygon fill="#fffb81" stroke="black" points="550,-532 155,-532 155,-494 550,-494 550,-532"/>
<text text-anchor="start" x="163" y="-516.8" font-family="Times,serif" font-size="14.00">import sys</text>
<text text-anchor="start" x="163" y="-501.8" font-family="Times,serif" font-size="14.00">assert &#39;linux&#39; in sys.platform, &#39;This code should be ...&#39;</text>
</g>
<!-- 3 -->
<g id="node2" class="node">
<title>3</title>
<polygon fill="#fffb81" stroke="black" points="646,-486 59,-486 59,-403 646,-403 646,-486"/>
<text text-anchor="start" x="67" y="-470.8" font-family="Times,serif" font-size="14.00">&quot;&quot;&quot;</text>
<text text-anchor="start" x="67" y="-455.8" font-family="Times,serif" font-size="14.00">Feel free to define any other helper functions you may need for this assignment</text>
<text text-anchor="start" x="67" y="-440.8" font-family="Times,serif" font-size="14.00">&quot;&quot;&quot;</text>
<text text-anchor="start" x="67" y="-425.8" font-family="Times,serif" font-size="14.00">def build_matrix(rows, cols):...</text>
<text text-anchor="start" x="67" y="-410.8" font-family="Times,serif" font-size="14.00">def matrix_search(matrix, word):...</text>
</g>
<!-- 1&#45;&gt;3 -->
<g id="edge5" class="edge">
<title>1&#45;&gt;3</title>
<path fill="none" stroke="black" d="M352.5,-493.83C352.5,-493.67 352.5,-493.52 352.5,-493.37"/>
<polygon fill="black" stroke="black" points="356,-496.1 352.5,-486.1 349,-496.1 356,-496.1"/>
</g>
<!-- 10 -->
<g id="node3" class="node">
<title>10</title>
<polygon fill="#ff6752" stroke="black" points="352.5,-395 164.98,-377 352.5,-359 540.02,-377 352.5,-395"/>
<text text-anchor="start" x="216.25" y="-373.3" font-family="Times,serif" font-size="14.00">if __name__ == &#39;__main__&#39;:</text>
</g>
<!-- 3&#45;&gt;10 -->
<g id="edge4" class="edge">
<title>3&#45;&gt;10</title>
<path fill="none" stroke="black" d="M352.5,-402.76C352.5,-402.6 352.5,-402.44 352.5,-402.28"/>
<polygon fill="black" stroke="black" points="356,-405.24 352.5,-395.24 349,-405.24 356,-405.24"/>
</g>
<!-- 11 -->
<g id="node4" class="node">
<title>11</title>
<polygon fill="#fffb81" stroke="black" points="455,-351 0,-351 0,-283 455,-283 455,-351"/>
<text text-anchor="start" x="8" y="-335.8" font-family="Times,serif" font-size="14.00">&quot;&quot;&quot;</text>
<text text-anchor="start" x="8" y="-320.8" font-family="Times,serif" font-size="14.00"> &#160;&#160;&#160;Write the code to read in the dimensions/matrix/word here</text>
<text text-anchor="start" x="8" y="-305.8" font-family="Times,serif" font-size="14.00"> &#160;&#160;&#160;Main should call build_matrix</text>
<text text-anchor="start" x="8" y="-290.8" font-family="Times,serif" font-size="14.00"> &#160;&#160;&#160;&quot;&quot;&quot;</text>
</g>
<!-- 10&#45;&gt;11 -->
<g id="edge2" class="edge">
<title>10&#45;&gt;11</title>
<path fill="none" stroke="green" d="M321.92,-361.81C317.61,-359.81 313.01,-357.68 308.26,-355.47"/>
<polygon fill="green" stroke="green" points="309.52,-352.2 298.97,-351.16 306.57,-358.55 309.52,-352.2"/>
</g>
<!-- 12 -->
<g id="node5" class="node">
<title>12</title>
<polygon fill="#fffb81" stroke="black" points="379.5,-275 325.5,-275 325.5,-239 379.5,-239 379.5,-275"/>
</g>
<!-- 10&#45;&gt;12 -->
<g id="edge3" class="edge">
<title>10&#45;&gt;12</title>
<path fill="none" stroke="red" d="M423.18,-365.74C438.51,-362.04 451.61,-357.2 456.5,-351 475.21,-327.26 475.21,-306.74 456.5,-283 448.2,-272.47 416.2,-265.87 389.86,-262.11"/>
<polygon fill="red" stroke="red" points="390.12,-258.61 379.74,-260.76 389.19,-265.55 390.12,-258.61"/>
<text text-anchor="middle" x="557.5" y="-313.3" font-family="Times,serif" font-size="14.00">(__name__ != &#39;__main__&#39;)</text>
</g>
<!-- 11&#45;&gt;12 -->
<g id="edge1" class="edge">
<title>11&#45;&gt;12</title>
<path fill="none" stroke="black" d="M298.76,-282.93C304.66,-280.2 310.45,-277.51 315.91,-274.98"/>
<polygon fill="black" stroke="black" points="317.76,-277.98 325.36,-270.59 314.81,-271.63 317.76,-277.98"/>
</g>
<!-- 5 -->
<g id="node6" class="node">
<title>5</title>
<polygon fill="#fffb81" stroke="black" points="821.5,-129 331.5,-129 331.5,-31 821.5,-31 821.5,-129"/>
<text text-anchor="start" x="339.5" y="-113.8" font-family="Times,serif" font-size="14.00">&quot;&quot;&quot;</text>
<text text-anchor="start" x="339.5" y="-98.8" font-family="Times,serif" font-size="14.00"> &#160;&#160;&#160;Should build a 2D List of Lists of empty strings, &#39;&#39;</text>
<text text-anchor="start" x="339.5" y="-83.8" font-family="Times,serif" font-size="14.00"> &#160;&#160;&#160;Returns a List[List[str]]</text>
<text text-anchor="start" x="339.5" y="-68.8" font-family="Times,serif" font-size="14.00"> &#160;&#160;&#160;Write your function below here</text>
<text text-anchor="start" x="339.5" y="-53.8" font-family="Times,serif" font-size="14.00"> &#160;&#160;&#160;Do NOT fill your matrix here; fill it in main, or another function.</text>
<text text-anchor="start" x="339.5" y="-38.8" font-family="Times,serif" font-size="14.00"> &#160;&#160;&#160;&quot;&quot;&quot;</text>
</g>
<!-- 8 -->
<g id="node7" class="node">
<title>8</title>
<polygon fill="#fffb81" stroke="black" points="1059.5,-735 547.5,-735 547.5,-607 1059.5,-607 1059.5,-735"/>
<text text-anchor="start" x="555.5" y="-719.8" font-family="Times,serif" font-size="14.00">&quot;&quot;&quot;</text>
<text text-anchor="start" x="555.5" y="-704.8" font-family="Times,serif" font-size="14.00"> &#160;&#160;&#160;Should search through a matrix built above to find the word (a str)</text>
<text text-anchor="start" x="555.5" y="-689.8" font-family="Times,serif" font-size="14.00"> &#160;&#160;&#160;Returns the coordinates [down][over] a.k.a. [row][col]</text>
<text text-anchor="start" x="555.5" y="-674.8" font-family="Times,serif" font-size="14.00"> &#160;&#160;&#160;as a tuple of tuples of ints: Tuple[Tuple[int, int], Tuple[int, int]]</text>
<text text-anchor="start" x="555.5" y="-659.8" font-family="Times,serif" font-size="14.00"> &#160;&#160;&#160;If it does not find the word, then return None</text>
<text text-anchor="start" x="555.5" y="-644.8" font-family="Times,serif" font-size="14.00"> &#160;&#160;&#160;Write your actual AI below here</text>
<text text-anchor="start" x="555.5" y="-629.8" font-family="Times,serif" font-size="14.00"> &#160;&#160;&#160;matrix_search should NOT build or fill the matrix.</text>
<text text-anchor="start" x="555.5" y="-614.8" font-family="Times,serif" font-size="14.00"> &#160;&#160;&#160;&quot;&quot;&quot;</text>
</g>
<!-- input -->
<g id="node8" class="node">
<title>input</title>
<polygon fill="#afeeee" stroke="black" points="462.92,-687 381.12,-687 360.08,-651 441.88,-651 462.92,-687"/>
<text text-anchor="middle" x="411.5" y="-665.3" font-family="Times,serif" font-size="14.00">input</text>
</g>
<!-- call -->
<g id="node13" class="node">
<title>call</title>
<polygon fill="#e552ff" stroke="black" points="438.5,-643 396.5,-643 396.5,-647 384.5,-647 384.5,-607 438.5,-607 438.5,-643"/>
<polyline fill="none" stroke="black" points="384.5,-643 396.5,-643 "/>
<text text-anchor="middle" x="411.5" y="-621.3" font-family="Times,serif" font-size="14.00">call</text>
</g>
<!-- input&#45;&gt;call -->
<!-- default -->
<g id="node9" class="node">
<title>default</title>
<polygon fill="#fffb81" stroke="black" points="316,-643 249,-643 249,-607 316,-607 316,-643"/>
<text text-anchor="middle" x="282.5" y="-621.3" font-family="Times,serif" font-size="14.00">default</text>
</g>
<!-- if -->
<g id="node10" class="node">
<title>if</title>
<polygon fill="#ff6752" stroke="black" points="424.5,-731 397.5,-713 424.5,-695 451.5,-713 424.5,-731"/>
<text text-anchor="middle" x="424.5" y="-709.3" font-family="Times,serif" font-size="14.00">if</text>
</g>
<!-- if&#45;&gt;input -->
<!-- for -->
<g id="node11" class="node">
<title>for</title>
<polygon fill="#ffbe52" stroke="black" points="379.04,-713 365.27,-731 337.73,-731 323.96,-713 337.73,-695 365.27,-695 379.04,-713"/>
<text text-anchor="middle" x="351.5" y="-709.3" font-family="Times,serif" font-size="14.00">for</text>
</g>
<!-- return -->
<g id="node14" class="node">
<title>return</title>
<polygon fill="#98fb98" stroke="black" points="341.66,-687 247.55,-687 223.34,-651 317.45,-651 341.66,-687"/>
<text text-anchor="middle" x="282.5" y="-665.3" font-family="Times,serif" font-size="14.00">return</text>
</g>
<!-- for&#45;&gt;return -->
<!-- while -->
<g id="node12" class="node">
<title>while</title>
<polygon fill="#ffbe52" stroke="black" points="305.55,-713 285.03,-731 243.97,-731 223.45,-713 243.97,-695 285.03,-695 305.55,-713"/>
<text text-anchor="middle" x="264.5" y="-709.3" font-family="Times,serif" font-size="14.00">while</text>
</g>
<!-- return&#45;&gt;default -->
</g>
</svg>
